<?xml version="1.0" standalone="no"?>
<!DOCTYPE svg PUBLIC "-//W3C//DTD SVG 20010904//EN"
 "http://www.w3.org/TR/2001/REC-SVG-20010904/DTD/svg10.dtd">
<svg version="1.0" xmlns="http://www.w3.org/2000/svg"
 width="300.000000pt" height="300.000000pt" viewBox="0 0 300.000000 300.000000"
 preserveAspectRatio="xMidYMid meet">

<g transform="translate(0.000000,300.000000) scale(0.100000,-0.100000)"
fill="#000000" stroke="none">
<path d="M410 2179 l0 -412 22 29 c12 16 42 50 67 77 56 58 90 62 139 16 37
-35 41 -70 17 -139 -30 -86 -19 -95 75 -59 49 19 68 21 170 15 l115 -6 30 47
c82 130 197 231 285 253 41 10 56 8 144 -20 l97 -31 40 -62 c38 -59 40 -65 35
-120 -10 -100 -62 -193 -140 -246 -37 -26 -53 -29 -173 -38 -73 -5 -136 -12
-140 -16 -13 -14 13 -62 46 -84 28 -19 47 -23 105 -23 75 0 231 29 290 54 41
17 62 57 126 242 62 180 125 284 173 284 31 0 85 -41 102 -77 19 -39 19 -73 0
-164 -9 -40 -13 -74 -10 -77 2 -3 110 37 240 88 l235 93 0 134 0 133 -115 0
-115 0 0 125 0 125 -115 0 -115 0 0 135 0 135 -815 0 -815 0 0 -411z m615 157
c9 -14 19 -49 22 -78 10 -101 -44 -166 -192 -227 -94 -40 -179 -50 -223 -27
-60 31 -68 81 -22 144 23 32 49 50 117 82 112 51 182 88 212 112 33 25 67 23
86 -6z"/>
<path d="M1350 1783 c-26 -10 -70 -56 -70 -74 0 -25 12 -30 52 -19 73 21 122
101 61 99 -16 0 -35 -3 -43 -6z"/>
<path d="M410 410 l0 -140 1045 0 1045 0 0 140 0 140 -1045 0 -1045 0 0 -140z
m565 49 c4 -6 4 -13 0 -17 -4 -4 -10 -1 -12 6 -3 6 -13 12 -24 12 -17 0 -19
-8 -19 -59 0 -38 4 -61 13 -64 6 -3 -6 -5 -28 -5 -22 0 -34 2 -27 5 17 7 17
123 -1 123 -7 0 -18 -5 -25 -12 -9 -9 -12 -8 -12 5 0 14 10 17 64 17 36 0 68
-5 71 -11z m190 -14 c14 -13 25 -35 25 -49 0 -29 -42 -66 -75 -66 -33 0 -75
37 -75 66 0 33 42 74 75 74 14 0 37 -11 50 -25z m203 -20 c-66 -91 -64 -85
-33 -85 16 0 37 7 47 17 19 17 24 8 9 -15 -5 -9 -26 -12 -65 -10 l-57 3 45 60
c41 54 43 60 25 63 -12 2 -29 -4 -40 -14 -16 -14 -19 -15 -19 -2 0 24 10 28
67 28 l54 0 -33 -45z m217 34 c10 -16 -4 -24 -17 -11 -22 22 -48 14 -48 -13 0
-26 24 -35 33 -12 3 6 5 -1 5 -18 0 -16 -2 -24 -5 -17 -10 25 -33 12 -33 -18
0 -25 4 -30 24 -30 13 0 29 7 36 15 15 19 23 14 14 -9 -5 -12 -19 -16 -68 -15
-33 0 -55 3 -48 6 7 3 12 26 12 63 0 37 -5 60 -12 63 -7 3 13 6 44 6 31 1 60
-4 63 -10z m138 4 c-19 -7 -17 -109 2 -117 35 -13 47 4 43 65 -3 57 -2 59 22
58 14 0 19 -3 13 -6 -8 -3 -13 -23 -13 -51 0 -52 -21 -82 -56 -82 -36 0 -54
26 -54 80 0 29 -5 50 -12 53 -7 3 5 5 27 5 22 0 34 -2 28 -5z m248 -3 c23 -13
25 -33 4 -50 -16 -13 -9 -35 21 -64 14 -15 14 -16 -6 -16 -13 0 -27 11 -38 30
-22 38 -35 38 -30 0 4 -28 2 -30 -26 -30 -21 0 -27 3 -18 9 10 6 13 26 10 70
l-3 61 33 0 c18 0 42 -5 53 -10z"/>
<path d="M1080 441 c-23 -44 1 -101 43 -101 36 0 50 75 19 103 -25 22 -49 21
-62 -2z"/>
<path d="M1920 430 c0 -33 11 -38 30 -15 15 18 6 45 -15 45 -10 0 -15 -10 -15
-30z"/>
</g>
</svg>
